<?xml version="1.0" encoding="UTF-8"?>
<svg version="1.1" xmlns="http://www.w3.org/2000/svg" width="180" height="180">
<path d="M0 0 C-0.53773856 3.60346647 -1.3116954 5.72292908 -3.5625 8.5625 C-22.57438072 36.21198998 -22.9585041 74.78545436 -24 107 C-30.79257687 106.53654441 -37.01692763 105.45169256 -43.5 103.375 C-44.32371094 103.11211182 -45.14742187 102.84922363 -45.99609375 102.57836914 C-54.45841409 99.73002297 -61.72679653 96.16974158 -66 88 C-66.8817294 83.68932291 -65.76193884 81.14129318 -63.5625 77.5 C-58.64744108 70.61428067 -51.7549029 66.96996281 -44 64 C-57.05488092 66.2931532 -71.08359204 69.64622512 -81 79 C-81.59683594 79.54527344 -82.19367188 80.09054688 -82.80859375 80.65234375 C-85.66982959 83.56644307 -87.38439997 85.84563951 -87.625 90 C-87.12455623 95.41104823 -84.99347746 99.0902821 -81.140625 102.78125 C-69.12863813 112.22515692 -52.76759585 114.93226042 -38 117 C-37.27458008 117.10296387 -36.54916016 117.20592773 -35.80175781 117.31201172 C-31.53883199 117.91086481 -27.27229037 118.47140512 -23 119 C-22.82984375 119.77601563 -22.6596875 120.55203125 -22.484375 121.3515625 C-18.7911523 138.23711848 -18.7911523 138.23711848 -11.953125 154.01171875 C-11 156 -11 156 -11 159 C-23.4405549 159.45468018 -34.13394066 159.15655027 -46 155 C-47.53333984 154.49146484 -47.53333984 154.49146484 -49.09765625 153.97265625 C-68.4663474 146.80190235 -83.98902284 130.97739563 -92.75 112.5625 C-96.82522649 103.66957881 -99.48663748 94.78322289 -100 85 C-100.07605469 83.86175781 -100.15210937 82.72351563 -100.23046875 81.55078125 C-101.04484227 59.43063557 -92.43597812 39.56178635 -78.171875 22.859375 C-58.89485234 2.28641804 -27.38010857 -7.91332618 0 0 Z " fill="#279AD6" transform="translate(112,11)"/>
<path d="M0 0 C11.56251473 3.78667295 18.12988573 17.75233146 23.50390625 27.81640625 C29.05546251 39.20123954 30.27285941 49.73384908 30.375 62.25 C30.38893799 63.36318604 30.40287598 64.47637207 30.41723633 65.62329102 C30.34083445 78.90233513 30.34083445 78.90233513 27 84 C24.5221613 85.7164543 22.05046528 86.32060004 19.125 86.9375 C18.36413086 87.12731445 17.60326172 87.31712891 16.81933594 87.51269531 C10.27852278 89.09094439 3.68830136 90.2653973 -3 91 C-3.91652344 91.11085938 -4.83304688 91.22171875 -5.77734375 91.3359375 C-13.69140367 92.12203204 -21.61579115 92.10219428 -29.5625 92.125 C-31.29536255 92.13200928 -31.29536255 92.13200928 -33.06323242 92.13916016 C-34.15740479 92.13706543 -35.25157715 92.1349707 -36.37890625 92.1328125 C-37.3644751 92.13168457 -38.35004395 92.13055664 -39.36547852 92.12939453 C-41.76110914 92.01173313 -43.7459827 91.81233381 -46 91 C-52.7349818 77.5300364 -44.08852735 46.94674155 -39.50390625 33.0703125 C-35.68584896 22.35703478 -29.81330699 7.4066535 -19 2 C-15.03973057 1.61920486 -12.56177859 1.73630801 -8.9375 3.4375 C-1.92127292 9.55803852 1.22838453 17.2775631 4 26 C2.98074847 17.26046032 1.94183957 8.59367299 0 0 Z M-33.375 59.875 C-34.35486729 63.2065488 -33.82105642 65.65712743 -33 69 C-30.98004521 72.63591862 -29.0793422 74.25551558 -25.1875 75.5 C-20.7494496 76.37767415 -17.9067104 75.29806494 -14 73 C-11.70930044 71.07876811 -11.09598822 69.8391228 -10.7578125 66.8828125 C-10.6335659 62.67223317 -10.77246336 59.67072939 -13 56 C-16.69148571 52.8678303 -20.1564037 52.42201011 -24.84765625 52.578125 C-29.13545062 53.41856382 -30.94188774 56.55711965 -33.375 59.875 Z " fill="#26529E" transform="translate(144,28)"/>
<path d="M0 0 C-4.21966329 9.29411367 -8.6802293 17.69513719 -16 25 C-16.66 25 -17.32 25 -18 25 C-18 25.66 -18 26.32 -18 27 C-30.00713427 37.40273271 -43.97539984 45.33642922 -60 47 C-66.58289158 35.77670943 -70.11798027 22.04861797 -70 9 C-68.13073974 7.13073974 -64.96104939 7.71292124 -62.45703125 7.60546875 C-61.0690493 7.53937932 -59.68111115 7.47236524 -58.29321289 7.40454102 C-57.19567184 7.35222824 -57.19567184 7.35222824 -56.07595825 7.29885864 C-39.10216449 6.46377426 -22.42775779 5.0092288 -6.24194336 -0.51391602 C-3.77798021 -1.04813693 -2.36223973 -0.80405903 0 0 Z " fill="#26529D" transform="translate(168,122)"/>
<path d="M0 0 C8.70800009 4.08742861 12.31996073 13.04553896 15.43359375 21.6171875 C16 24 16 24 15 27 C12.83521656 24.83521656 12.47507838 23.74526465 11.625 20.875 C9.65648445 14.73204443 7.40511928 7.90369726 2 4 C-0.66158098 3.10939406 -3.23602361 2.55279528 -6 2 C-6 2.66 -6 3.32 -6 4 C-6.598125 4.268125 -7.19625 4.53625 -7.8125 4.8125 C-11.08929711 6.59133272 -12.64774764 8.38355837 -14.5 11.625 C-16 14 -16 14 -19 15 C-19.4805405 16.85351337 -19.94587695 18.71211222 -20.33984375 20.5859375 C-21.07492752 23.2739953 -22.1799003 25.51483283 -23.4375 28 C-26.48012612 34.46110605 -27.60679185 41.08057522 -28.69140625 48.0703125 C-28.97006443 49.81280795 -29.29481521 51.54777985 -29.625 53.28125 C-31.72161535 64.81263443 -31.65300298 76.42897914 -30 88 C-7.23 87.505 -7.23 87.505 16 87 C16 87.33 16 87.66 16 88 C4.65016476 89.43474215 -6.55364439 90.19390624 -18 90.1875 C-19.69068604 90.1884668 -19.69068604 90.1884668 -21.41552734 90.18945312 C-30.83516742 90.12639757 -30.83516742 90.12639757 -34 89 C-40.7349818 75.5300364 -32.08852735 44.94674155 -27.50390625 31.0703125 C-23.09900908 18.71039144 -15.53017306 -1.29418109 0 0 Z " fill="#2C4478" transform="translate(132,30)"/>
<path d="M0 0 C-4.21966329 9.29411367 -8.6802293 17.69513719 -16 25 C-16.66 25 -17.32 25 -18 25 C-18 25.66 -18 26.32 -18 27 C-19.90309664 28.66115258 -21.79341169 30.18075244 -23.8125 31.6875 C-24.35970703 32.11611328 -24.90691406 32.54472656 -25.47070312 32.98632812 C-27.08203125 34.19921875 -27.08203125 34.19921875 -30 36 C-30.99 35.67 -31.98 35.34 -33 35 C-32.3709375 34.50371094 -31.741875 34.00742188 -31.09375 33.49609375 C-19.86814844 24.84853327 -19.86814844 24.84853327 -11 14 C-10.34 14 -9.68 14 -9 14 C-7.68373308 10.38026598 -7 7.90432869 -7 4 C-8.29309082 4.21849609 -8.29309082 4.21849609 -9.61230469 4.44140625 C-12.80579789 4.96797821 -16.00200485 5.45975034 -19.203125 5.9375 C-20.3478125 6.11023438 -21.4925 6.28296875 -22.671875 6.4609375 C-25.072571 6.82261441 -27.47361921 7.18196061 -29.875 7.5390625 C-31.01453125 7.71179688 -32.1540625 7.88453125 -33.328125 8.0625 C-34.3687207 8.21847656 -35.40931641 8.37445313 -36.48144531 8.53515625 C-38.98470282 8.87674923 -38.98470282 8.87674923 -41 10 C-42.77083735 10.02048903 -44.5423653 9.99142463 -46.3125 9.9375 C-53.02436053 9.8642797 -59.40864516 10.80930364 -66 12 C-66.19895516 18.06813248 -65.68841607 23.48002369 -64.4375 29.421875 C-63.99991377 32.00050813 -63.92489568 34.39012489 -64 37 C-65.89324687 34.16012969 -66.42684829 32.74493247 -67.0703125 29.5078125 C-67.33134766 28.20263672 -67.33134766 28.20263672 -67.59765625 26.87109375 C-67.85869141 25.51177734 -67.85869141 25.51177734 -68.125 24.125 C-68.39763672 22.77728516 -68.39763672 22.77728516 -68.67578125 21.40234375 C-69.50026771 17.20552169 -70.21398494 13.29729927 -70 9 C-68.13073974 7.13073974 -64.96104939 7.71292124 -62.45703125 7.60546875 C-61.0690493 7.53937932 -59.68111115 7.47236524 -58.29321289 7.40454102 C-57.19567184 7.35222824 -57.19567184 7.35222824 -56.07595825 7.29885864 C-39.10216449 6.46377426 -22.42775779 5.0092288 -6.24194336 -0.51391602 C-3.77798021 -1.04813693 -2.36223973 -0.80405903 0 0 Z " fill="#263F70" transform="translate(168,122)"/>
<path d="M0 0 C0.9075 -0.01224609 1.815 -0.02449219 2.75 -0.03710938 C8.39392873 -0.04930807 13.21044918 0.58342347 18.625 2.1875 C18.06510697 6.17762371 16.86830232 8.7130052 14.5625 12 C13.74072266 13.18529297 13.74072266 13.18529297 12.90234375 14.39453125 C12.27005859 15.28205078 12.27005859 15.28205078 11.625 16.1875 C11 14.375 11 14.375 10.625 12.1875 C11.285 11.1975 11.945 10.2075 12.625 9.1875 C12.955 7.5375 13.285 5.8875 13.625 4.1875 C9.995 4.5175 6.365 4.8475 2.625 5.1875 C2.955 4.5275 3.285 3.8675 3.625 3.1875 C1.22825733 3.30206128 -1.16681218 3.42878719 -3.5625 3.5625 C-4.23603516 3.5934375 -4.90957031 3.624375 -5.60351562 3.65625 C-9.63863888 3.89245234 -12.6750508 4.65629025 -16.375 6.1875 C-19.90539222 6.93054734 -23.48070452 7.42842931 -27.04882812 7.95507812 C-31.66961683 8.69851169 -35.21255998 9.93362976 -39.375 12.1875 C-40.035 12.1875 -40.695 12.1875 -41.375 12.1875 C-41.375 12.8475 -41.375 13.5075 -41.375 14.1875 C-42.695 13.8575 -44.015 13.5275 -45.375 13.1875 C-30.77892083 4.76511258 -17.04838279 0.0120059 0 0 Z " fill="#3F8AB5" transform="translate(93.375,8.8125)"/>
<path d="M0 0 C-2.37821625 2.37821625 -4.6305744 3.2875278 -7.6875 4.6875 C-14.40876292 7.97954714 -18.86773174 11.80159761 -23 18 C-23.52971863 23.29718633 -23.22340199 26.87003007 -20.35546875 31.39453125 C-17.98022486 34.20786047 -15.06908571 35.99329011 -12 38 C-12 38.33 -12 38.66 -12 39 C-13.051875 38.95875 -14.10375 38.9175 -15.1875 38.875 C-18.75697347 38.99203192 -20.82367074 39.50525682 -24 41 C-24.33 41 -24.66 41 -25 41 C-25.125 35.25 -25.125 35.25 -24 33 C-24.66 33 -25.32 33 -26 33 C-26.78722252 30.18758407 -27.18776388 27.60741138 -27.25 24.6875 C-27.27578125 23.96949219 -27.3015625 23.25148438 -27.328125 22.51171875 C-26.60725411 16.99362372 -24.8844727 13.39984262 -20.56640625 9.98046875 C-19.24331193 9.03314899 -17.90827302 8.10231598 -16.5625 7.1875 C-15.89412109 6.71119141 -15.22574219 6.23488281 -14.53710938 5.74414062 C-5.91879798 -0.32882211 -5.91879798 -0.32882211 0 0 Z " fill="#2A9AD0" transform="translate(48,79)"/>
<path d="M0 0 C8.70800009 4.08742861 12.31996073 13.04553896 15.43359375 21.6171875 C16 24 16 24 15 27 C12.83521656 24.83521656 12.47507838 23.74526465 11.625 20.875 C9.65648445 14.73204443 7.40511928 7.90369726 2 4 C-0.66158098 3.10939406 -3.23602361 2.55279528 -6 2 C-6 2.66 -6 3.32 -6 4 C-6.598125 4.268125 -7.19625 4.53625 -7.8125 4.8125 C-11.08929711 6.59133272 -12.64774764 8.38355837 -14.5 11.625 C-16 14 -16 14 -19 15 C-19.47863416 16.84616033 -19.94341625 18.69695883 -20.33984375 20.5625 C-21.09367244 23.34586747 -22.19884735 25.7719807 -23.4375 28.375 C-25.84348653 33.46458689 -27.55054371 38.56748497 -29 44 C-30.30706053 40.07881842 -29.21890885 37.47182828 -28 33.6875 C-27.7721582 32.97835449 -27.54431641 32.26920898 -27.30957031 31.53857422 C-23.06222166 18.81637569 -15.90919699 -1.32576642 0 0 Z " fill="#384E81" transform="translate(132,30)"/>
<path d="M0 0 C11.54297315 3.78027317 18.3225547 17.85044898 23.5390625 27.9921875 C26.72501175 34.71808036 29.47415027 41.41359571 29 49 C26.51967614 46.51967614 26.27275446 44.75626213 25.375 41.375 C23.72177695 35.79381842 21.60462934 30.70324337 19 25.5 C18.50185791 24.49525635 18.50185791 24.49525635 17.99365234 23.47021484 C16.01479499 19.60876887 13.83782027 16.3127208 11 13 C10.53335938 12.41734375 10.06671875 11.8346875 9.5859375 11.234375 C7.17147099 8.1728676 7.17147099 8.1728676 4 6 C4.13277344 6.6084375 4.26554688 7.216875 4.40234375 7.84375 C6.08680111 16.20456026 6.59484332 24.5023717 7 33 C5.02 33.495 5.02 33.495 3 34 C3.17015625 33.46890625 3.3403125 32.9378125 3.515625 32.390625 C5.59063053 22.14946866 2.08309056 10.08792284 0 0 Z " fill="#2A4275" transform="translate(144,28)"/>
<path d="M0 0 C1 2 1 2 -0.07421875 5.39453125 C-0.61037615 6.86777188 -1.14827332 8.34038 -1.6875 9.8125 C-10.19801823 34.34078221 -10.98195579 60.2809884 -12 86 C-13.65 86 -15.3 86 -17 86 C-15.515 85.01 -15.515 85.01 -14 84 C-13.53787446 81.53717696 -13.53787446 81.53717696 -13.59375 78.62890625 C-13.57376953 77.50959717 -13.55378906 76.39028809 -13.53320312 75.23706055 C-13.52224609 74.02445557 -13.51128906 72.81185059 -13.5 71.5625 C-13.21418723 58.13365671 -12.04930066 44.93730021 -10.33422852 31.61962891 C-10.06792946 29.5324201 -9.8382177 27.44055209 -9.62109375 25.34765625 C-8.77272377 20.7749954 -7.20900368 16.58925817 -5.5625 12.25 C-5.24990234 11.40050781 -4.93730469 10.55101562 -4.61523438 9.67578125 C-3.29289106 6.13648604 -2.10886615 3.16329923 0 0 Z " fill="#397EA7" transform="translate(100,32)"/>
<path d="M0 0 C7.34567671 0.04837987 7.34567671 0.04837987 10.5625 2.625 C13.61220766 6.35242048 14.0646263 9.02194361 13.625 13.75 C13.0163169 18.19411999 12.06827228 21.11922772 8.8125 24.375 C5.80459559 25.15290631 2.91236157 25.36175273 -0.1875 25.375 C1.8125 23.375 1.8125 23.375 5.3125 21.9375 C9.00687242 20.66156506 9.00687242 20.66156506 10.8125 17.375 C11.09127399 15.22556665 11.09127399 15.22556665 11 12.9375 C10.99355469 12.17566406 10.98710937 11.41382812 10.98046875 10.62890625 C10.81463473 8.40364516 10.53485121 6.48684207 9.8125 4.375 C5.64821715 1.77232322 0.56931634 1.54772759 -4.1875 2.375 C-7.85830764 4.89868025 -8.94614984 6.54535883 -10.1875 10.8125 C-10.1875 14.99310309 -9.59165469 16.96265141 -7.1875 20.375 C-4.13710779 22.27706849 -4.13710779 22.27706849 -1.1875 23.375 C-1.5175 24.035 -1.8475 24.695 -2.1875 25.375 C-5.62561794 25.08849017 -6.92921193 24.64066773 -9.375 22.125 C-13.32728358 16.1284318 -13.43334294 11.40883962 -13.1875 4.375 C-12.218125 3.900625 -11.24875 3.42625 -10.25 2.9375 C-4.76699259 0.14004724 -4.76699259 0.14004724 0 0 Z " fill="#283C6B" transform="translate(121.1875,79.625)"/>
<path d="M0 0 C3.71619005 0.66457413 7.17206126 1.67926399 10.75 2.875 C23.47602214 6.83931389 36.80817404 8.36782357 50 10 C50.18175781 10.81082031 50.36351562 11.62164062 50.55078125 12.45703125 C52.02666473 18.95848722 53.61520802 25.37573629 55.546875 31.7578125 C56 34 56 34 55 37 C49.83473861 31.3651694 49.74129942 23.57659152 49.24609375 16.3203125 C49.13460989 13.97723235 49.13460989 13.97723235 48 12 C45.87409611 11.50097196 45.87409611 11.50097196 43.28515625 11.2890625 C42.29692871 11.18086182 41.30870117 11.07266113 40.29052734 10.96118164 C39.22527832 10.8502417 38.1600293 10.73930176 37.0625 10.625 C29.26506521 9.72690571 21.55069508 8.72029987 13.875 7.0625 C13.16093994 6.91699707 12.44687988 6.77149414 11.71118164 6.62158203 C6.9842542 5.54792588 3.78110009 3.91533419 0 1 C0 0.67 0 0.34 0 0 Z " fill="#3883AA" transform="translate(39,120)"/>
<path d="M0 0 C0 0.66 0 1.32 0 2 C-4.72731744 3.45455921 -8.73364708 4.10526115 -13.6875 4 C-20.27536849 3.865382 -26.53095704 4.83139869 -33 6 C-33.19895516 12.06813248 -32.68841607 17.48002369 -31.4375 23.421875 C-30.99991377 26.00050813 -30.92489568 28.39012489 -31 31 C-32.89324687 28.16012969 -33.42684829 26.74493247 -34.0703125 23.5078125 C-34.33134766 22.20263672 -34.33134766 22.20263672 -34.59765625 20.87109375 C-34.85869141 19.51177734 -34.85869141 19.51177734 -35.125 18.125 C-35.39763672 16.77728516 -35.39763672 16.77728516 -35.67578125 15.40234375 C-36.50026771 11.20552169 -37.21398494 7.29729927 -37 3 C-35.05770477 1.05770477 -31.44996905 1.61001545 -28.7890625 1.46484375 C-27.70315323 1.40037804 -27.70315323 1.40037804 -26.5953064 1.33460999 C-24.27210198 1.19787456 -21.94857703 1.06773352 -19.625 0.9375 C-18.06508021 0.84611109 -16.50518397 0.75431933 -14.9453125 0.66210938 C-3.60011909 0 -3.60011909 0 0 0 Z " fill="#314A78" transform="translate(135,128)"/>
<path d="M0 0 C0.33 0 0.66 0 1 0 C1.0879568 4.145697 1.14071153 8.29115012 1.1875 12.4375 C1.21263672 13.60216797 1.23777344 14.76683594 1.26367188 15.96679688 C1.38275716 30.05855573 1.38275716 30.05855573 -2 35 C-4.62869919 36.74620995 -7.24995531 37.404196 -10.3125 38.0625 C-11.05951172 38.26037109 -11.80652344 38.45824219 -12.57617188 38.66210938 C-16.7852432 39.72269188 -20.63449276 40.21515219 -25 40 C-25.33 39.34 -25.66 38.68 -26 38 C-24.13794922 37.65388672 -24.13794922 37.65388672 -22.23828125 37.30078125 C-20.59615354 36.97235571 -18.95423708 36.64287269 -17.3125 36.3125 C-16.49587891 36.16361328 -15.67925781 36.01472656 -14.83789062 35.86132812 C-9.53151116 34.76567892 -6.28571878 33.59246736 -3 29 C-0.79357762 22.82860366 -0.78084765 17.06119915 -0.9375 10.5625 C-0.9717578 8.7722127 -1.00193803 6.98184105 -1.02734375 5.19140625 C-1.05429321 4.01880249 -1.05429321 4.01880249 -1.08178711 2.82250977 C-1 1 -1 1 0 0 Z " fill="#294378" transform="translate(173,77)"/>
<path d="M0 0 C2.75723092 2.29769244 3.91184003 3.67884583 4.875 7.1875 C6.32821967 12.11229999 8.82714944 15.98220555 12 20 C12.66 20.33 13.32 20.66 14 21 C14.33 21.99 14.66 22.98 15 24 C19.55408448 29.10609472 25.01517121 33.28531112 30.9375 36.6875 C33 38 33 38 34 41 C18.35221712 35.4968721 7.00248635 19.24859062 -0.25 5.12890625 C-1 3 -1 3 0 0 Z " fill="#3784AE" transform="translate(19,118)"/>
<path d="M0 0 C0 2.59887074 -0.28256313 4.82346229 -0.6875 7.375 C-1.06356988 10.63250667 -1.07060661 11.83407446 0.25 14.9375 C2.01368491 17.2081442 2.01368491 17.2081442 5 19 C6.66614608 19.04165365 8.33385392 19.04165365 10 19 C10.99 19.33 11.98 19.66 13 20 C13.33 20.99 13.66 21.98 14 23 C16.54664408 24.18775554 16.54664408 24.18775554 19.625 25.0625 C21.24535156 25.56716797 21.24535156 25.56716797 22.8984375 26.08203125 C24.43371094 26.53642578 24.43371094 26.53642578 26 27 C26.77601562 27.23074219 27.55203125 27.46148437 28.3515625 27.69921875 C29.8968444 28.14754128 31.44769254 28.57664342 33 29 C33 29.33 33 29.66 33 30 C20.90767083 29.36356162 7.95388967 25.45247184 -1 17 C-3.66376758 13.11508952 -4.67824256 10.74769794 -4 6 C-2 2.625 -2 2.625 0 0 Z " fill="#3881AB" transform="translate(50,87)"/>
<path d="M0 0 C0 0.99 0 1.98 0 3 C-0.72703125 3.27972656 -1.4540625 3.55945313 -2.203125 3.84765625 C-9.91102441 6.92093409 -16.93696694 10.65448143 -24 15 C-22.40311188 10.20933564 -18.22517338 8.48220459 -14 6 C-11.68993381 4.86802564 -9.40560294 3.92129474 -7 3 C-7.97582031 3.22816406 -8.95164062 3.45632812 -9.95703125 3.69140625 C-11.86548828 4.12259766 -11.86548828 4.12259766 -13.8125 4.5625 C-15.70935547 4.99755859 -15.70935547 4.99755859 -17.64453125 5.44140625 C-21 6 -21 6 -24 5 C-16.96333084 1.0622046 -8.00823453 -0.55871404 0 0 Z " fill="#3481AC" transform="translate(75,72)"/>
<path d="M0 0 C1 2 1 2 0.56274414 3.86010742 C0.30614014 4.60107666 0.04953613 5.3420459 -0.21484375 6.10546875 C-0.48876953 6.92466797 -0.76269531 7.74386719 -1.04492188 8.58789062 C-1.63356378 10.30229406 -2.22465578 12.01585848 -2.81835938 13.72851562 C-4.47934592 18.71147526 -5.34840692 22.74545478 -5 28 C-5.66 28 -6.32 28 -7 28 C-6.67 28.99 -6.34 29.98 -6 31 C-6.33 31.33 -6.66 31.66 -7 32 C-7.28101946 34.31952569 -7.44782625 36.63885514 -7.62109375 38.96875 C-7.74613281 39.6390625 -7.87117188 40.309375 -8 41 C-8.99 41.495 -8.99 41.495 -10 42 C-9.57734546 38.20652832 -9.13412044 34.41571873 -8.6875 30.625 C-8.56955078 29.56410156 -8.45160156 28.50320312 -8.33007812 27.41015625 C-7.13412851 17.41324408 -4.76393006 8.87076632 0 0 Z " fill="#2D4F93" transform="translate(110,54)"/>
<path d="M0 0 C0.33 0 0.66 0 1 0 C1.74314369 4.98643745 2.04362402 9.66639417 1.88476562 14.69995117 C1.58502175 24.49934803 2.88540738 32.69793544 6 42 C5.01 42.495 5.01 42.495 4 43 C0.52143529 32.53194713 -1.05076716 23.73274861 -1.125 12.75 C-1.13225098 11.72072388 -1.13225098 11.72072388 -1.13964844 10.6706543 C-1.12705448 6.98827152 -0.87424347 3.58023517 0 0 Z " fill="#3880A9" transform="translate(13,75)"/>
<path d="M0 0 C0.66 0 1.32 0 2 0 C2 7.92 2 15.84 2 24 C-2.12414757 25.03103689 -2.9841142 24.94701684 -6.75 23.5625 C-7.94882813 23.13130859 -7.94882813 23.13130859 -9.171875 22.69140625 C-9.77515625 22.46324219 -10.3784375 22.23507813 -11 22 C-10.01 21.34 -9.02 20.68 -8 20 C-5.1524013 20.75548537 -2.63227284 21.68386358 0 23 C0 15.41 0 7.82 0 0 Z " fill="#3294CD" transform="translate(85,92)"/>
<path d="M0 0 C0.33 0.99 0.66 1.98 1 3 C-0.25 5.3125 -0.25 5.3125 -2 8 C-3.9005157 11.36245086 -4.96903441 13.77549944 -5.5 17.625 C-6.0320779 21.21652581 -6.79174402 22.26176258 -9 25 C-9.72351427 26.98014432 -10.40265389 28.97821315 -11 31 C-12.6398197 26.98142949 -11.23990519 23.69287562 -9.875 19.8125 C-9.64707764 19.14702148 -9.41915527 18.48154297 -9.18432617 17.79589844 C-6.89932589 11.33989079 -3.79166557 5.68749835 0 0 Z " fill="#4088B1" transform="translate(26,44)"/>
<path d="M0 0 C2.6875 -0.3125 2.6875 -0.3125 6 0 C8.625 2.1875 8.625 2.1875 11 5 C11.65097656 5.74636719 12.30195313 6.49273437 12.97265625 7.26171875 C15.20897508 10.28225729 16.47795069 13.1172722 17.8125 16.625 C18.25207031 17.75164063 18.69164062 18.87828125 19.14453125 20.0390625 C20 23 20 23 19 26 C16.83521656 23.83521656 16.47507838 22.74526465 15.625 19.875 C13.62220802 13.62508131 11.37224649 7.10818849 6 3 C2.86649283 1.73215876 2.86649283 1.73215876 0 1 C0 0.67 0 0.34 0 0 Z " fill="#2B4274" transform="translate(128,31)"/>
<path d="M0 0 C1.70840281 1.63412443 2.93453047 2.86906094 4 5 C6.46992376 4.58834604 8.59227797 4.21792039 10.8125 3.03125 C13.44179094 1.79172713 15.88653539 1.3522441 18.75 0.875 C19.73484375 0.70742187 20.7196875 0.53984375 21.734375 0.3671875 C22.48203125 0.24601563 23.2296875 0.12484375 24 0 C24 0.66 24 1.32 24 2 C10.55125285 7.55580866 10.55125285 7.55580866 3 8 C0 3.375 0 3.375 0 0 Z " fill="#2B467E" transform="translate(105,161)"/>
<path d="M0 0 C0.99 0 1.98 0 3 0 C4 3 4 3 3.375 6.3125 C2.92828337 10.70521352 3.47299224 12.41327932 6 16 C9.05039221 17.90206849 9.05039221 17.90206849 12 19 C11.67 19.66 11.34 20.32 11 21 C7.56188206 20.71349017 6.25828807 20.26566773 3.8125 17.75 C-0.13978358 11.7534318 -0.24584294 7.03383962 0 0 Z " fill="#2F497B" transform="translate(108,84)"/>
<path d="M0 0 C2 0.66666667 4 1.33333333 6 2 C5.67 3.65 5.34 5.3 5 7 C2.1875 8.125 2.1875 8.125 -1 9 C-1.99 8.34 -2.98 7.68 -4 7 C-1.125 1.125 -1.125 1.125 0 0 Z " fill="#2D5096" transform="translate(130,153)"/>
<path d="M0 0 C0.33 0 0.66 0 1 0 C1.29183438 7.00402509 1.50582166 13.78941599 -3 19.5625 C-7.43298596 21.68663911 -11.26646128 20.84560303 -16 20 C-15.505 18.515 -15.505 18.515 -15 17 C-14.67 17.66 -14.34 18.32 -14 19 C-7.95965602 18.24477637 -7.95965602 18.24477637 -3 15.0625 C-1.72543677 11.15915011 -1.44048678 7.41628833 -1.2109375 3.328125 C-1 1 -1 1 0 0 Z " fill="#2E5390" transform="translate(135,86)"/>
<path d="M0 0 C0.66 0 1.32 0 2 0 C2.18175781 0.81082031 2.36351563 1.62164062 2.55078125 2.45703125 C4.02666473 8.95848722 5.61520802 15.37573629 7.546875 21.7578125 C8 24 8 24 7 27 C1.87968882 21.41420599 1.74991622 13.71308882 1.24609375 6.515625 C1.02390955 4.24440877 0.61956783 2.19152918 0 0 Z " fill="#36799F" transform="translate(87,130)"/>
<path d="M0 0 C4.85075912 -0.08094977 9.50291916 0.1770774 14.3125 0.8125 C16.13201172 1.03873047 16.13201172 1.03873047 17.98828125 1.26953125 C21 2 21 2 23 5 C22.625 7.1875 22.625 7.1875 22 9 C22 8.34 22 7.68 22 7 C21.01 7 20.02 7 19 7 C19 5.68 19 4.36 19 3 C18.24074219 3.09539062 17.48148438 3.19078125 16.69921875 3.2890625 C15.70535156 3.39992187 14.71148437 3.51078125 13.6875 3.625 C12.70136719 3.74101562 11.71523437 3.85703125 10.69921875 3.9765625 C8 4 8 4 5 2 C3.34450469 1.61500109 1.6777567 1.27206865 0 1 C0 0.67 0 0.34 0 0 Z " fill="#3298CA" transform="translate(66,129)"/>
<path d="M0 0 C0 0.99 0 1.98 0 3 C-3.33333333 6 -3.33333333 6 -6 6 C-6.33 6.99 -6.66 7.98 -7 9 C-7.66 9 -8.32 9 -9 9 C-9.33 10.32 -9.66 11.64 -10 13 C-10.61875 13.061875 -11.2375 13.12375 -11.875 13.1875 C-14.27761141 13.828919 -14.27761141 13.828919 -15.25 16.5625 C-15.4975 17.366875 -15.745 18.17125 -16 19 C-16.99 19 -17.98 19 -19 19 C-13.92688298 11.43156933 -7.5944054 5.06293694 0 0 Z " fill="#3D83A8" transform="translate(47,23)"/>
<path d="M0 0 C0.66 0 1.32 0 2 0 C2.33 0.99 2.66 1.98 3 3 C2.360625 3.4125 1.72125 3.825 1.0625 4.25 C-1.16349282 5.79071643 -1.16349282 5.79071643 -1.5 8.0625 C-1.665 8.701875 -1.83 9.34125 -2 10 C-3.33333333 10.66666667 -4.66666667 11.33333333 -6 12 C-7.75322937 14.53188648 -7.75322937 14.53188648 -9 17 C-9.33 16.34 -9.66 15.68 -10 15 C-9.00664799 13.32936253 -8.00568242 11.66324401 -7 10 C-6.29329272 7.30745009 -6.29329272 7.30745009 -6 5 C-5.01 5 -4.02 5 -3 5 C-1.96986723 3.35178756 -0.96885372 1.68496298 0 0 Z " fill="#3098CD" transform="translate(33,37)"/>
<path d="M0 0 C0 2.59887074 -0.28256313 4.82346229 -0.6875 7.375 C-1.03782479 10.50761439 -1.07145918 11.82135204 0.125 14.8125 C2.20634586 17.24073683 4.41978004 19.11713679 7 21 C3.49797158 20.5959198 0.90592765 18.95987924 -1.72265625 16.65234375 C-4.18892613 13.46203134 -4.4470638 9.92040562 -4 6 C-2.9258536 3.57450814 -1.73765829 2.05359616 0 0 Z " fill="#3A7FA5" transform="translate(50,87)"/>
<path d="M0 0 C0.66 0.33 1.32 0.66 2 1 C0.33521879 4.32956242 -3.26289352 5.09839212 -6.5546875 6.5859375 C-9.15537734 8.0898508 -10.39059676 9.49529959 -12 12 C-13.32 11.34 -14.64 10.68 -16 10 C-13.75 7.5 -13.75 7.5 -11 5 C-9.68 5 -8.36 5 -7 5 C-7 4.34 -7 3.68 -7 3 C-4.69631264 1.93347808 -2.35981813 0.93578995 0 0 Z " fill="#3096CB" transform="translate(59,18)"/>
<path d="M0 0 C2.62934428 4.50453555 2.14884177 8.04454819 1 13 C-0.5 16.5 -0.5 16.5 -3 19 C-6.00790441 19.77790631 -8.90013843 19.98675273 -12 20 C-10 18 -10 18 -6.5 16.5625 C-2.80562758 15.28656506 -2.80562758 15.28656506 -1 12 C-0.54084493 9.03157342 -0.54084493 9.03157342 -0.375 5.8125 C-0.30023438 4.72582031 -0.22546875 3.63914062 -0.1484375 2.51953125 C-0.09945312 1.68808594 -0.05046875 0.85664062 0 0 Z " fill="#2E4776" transform="translate(133,85)"/>
<path d="M0 0 C-2.38762181 2.38762181 -4.69633285 3.37302257 -7.75 4.8125 C-12.45145744 7.11237161 -16.20532212 9.41613756 -20 13 C-19.668598 10.04987236 -19.14446992 9.12473359 -16.85546875 7.1484375 C-15.97503906 6.56320313 -15.09460937 5.97796875 -14.1875 5.375 C-13.31480469 4.78460938 -12.44210938 4.19421875 -11.54296875 3.5859375 C-7.41873541 1.01383499 -4.92733804 -0.273741 0 0 Z " fill="#3C80A6" transform="translate(48,79)"/>
<path d="M0 0 C2.89073687 1.31913538 5.044397 2.78743667 7.375 4.9375 C9.71237565 7.01349171 11.44774718 8.21964956 14.3125 9.625 C17.22044743 11.11278706 17.95467513 11.96855789 19 15 C15.05439654 13.6236267 12.18151744 11.80978922 8.9375 9.1875 C8.10089844 8.52105469 7.26429687 7.85460937 6.40234375 7.16796875 C3.95210431 4.95677706 1.98684265 2.62923982 0 0 Z " fill="#3280A8" transform="translate(34,144)"/>
<path d="M0 0 C0.33 0.99 0.66 1.98 1 3 C0.01451631 4.34409809 -0.98767284 5.6760017 -2 7 C-2.77832644 9.57258666 -2.77832644 9.57258666 -3.1875 12.25 C-3.34605469 13.14203125 -3.50460938 14.0340625 -3.66796875 14.953125 C-3.77753906 15.62859375 -3.88710938 16.3040625 -4 17 C-4.33 17 -4.66 17 -5 17 C-5.56221257 5.11024527 -5.56221257 5.11024527 -2 1 C-1.34 0.67 -0.68 0.34 0 0 Z " fill="#3489B6" transform="translate(27,90)"/>
<path d="M0 0 C2.31 0.33 4.62 0.66 7 1 C6.44010697 4.99012371 5.24330232 7.5255052 2.9375 10.8125 C2.11572266 11.99779297 2.11572266 11.99779297 1.27734375 13.20703125 C0.85582031 13.79871094 0.43429688 14.39039063 0 15 C-0.68359375 13.296875 -0.68359375 13.296875 -1 11 C0.21484375 8.640625 0.21484375 8.640625 1.9375 6.25 C2.50339844 5.45078125 3.06929688 4.6515625 3.65234375 3.828125 C4.09707031 3.22484375 4.54179688 2.6215625 5 2 C3.35 1.67 1.7 1.34 0 1 C0 0.67 0 0.34 0 0 Z " fill="#387AA2" transform="translate(105,10)"/>
<path d="M0 0 C0.66 0.66 1.32 1.32 2 2 C1.67 2.33 1.34 2.66 1 3 C0.50722937 5.24882595 0.10127459 7.5074309 -0.3046875 9.7734375 C-1.08222809 12.26331468 -2.03232355 13.3333888 -4 15 C-5.61031868 11.77936264 -4.06849117 9.31794628 -3 6 C-1.24137931 1.24137931 -1.24137931 1.24137931 0 0 Z " fill="#2D8FC0" transform="translate(104,18)"/>
<path d="M0 0 C4.52698636 1.39910413 6.75155982 3.5615174 9.8125 7.125 C10.99779297 8.49011719 10.99779297 8.49011719 12.20703125 9.8828125 C12.79871094 10.58148438 13.39039063 11.28015625 14 12 C13.01 12.33 12.02 12.66 11 13 C9.14453125 10.70507812 9.14453125 10.70507812 7.2890625 8.41015625 C6.0333609 6.86733563 6.0333609 6.86733563 4 6 C4 5.34 4 4.68 4 4 C3.34 4 2.68 4 2 4 C1.67 4.66 1.34 5.32 1 6 C0.67 4.02 0.34 2.04 0 0 Z " fill="#354572" transform="translate(144,28)"/>
<path d="M0 0 C0.5775 0.515625 1.155 1.03125 1.75 1.5625 C3.87827523 3.26505193 3.87827523 3.26505193 6.25 2.6875 C7.11625 2.3471875 7.11625 2.3471875 8 2 C7.67 2.66 7.34 3.32 7 4 C9.31 4.66 11.62 5.32 14 6 C14 6.33 14 6.66 14 7 C7.33499135 7.59244521 2.13047025 5.48322845 -4 3 C-2.68 2.01 -1.36 1.02 0 0 Z " fill="#2F96CF" transform="translate(66,160)"/>
<path d="M0 0 C-1.22527029 4.05281712 -2.69880494 7.44360764 -5 11 C-5.88935377 7.696686 -6.46274105 4.37705625 -7 1 C-4.53721199 -0.231394 -2.7204945 -0.07159196 0 0 Z " fill="#304A80" transform="translate(167,123)"/>
<path d="M0 0 C0.66 0.33 1.32 0.66 2 1 C1.34 1.66 0.68 2.32 0 3 C0.66 3.66 1.32 4.32 2 5 C1.01 5.86625 1.01 5.86625 0 6.75 C-2.44290923 8.99653977 -2.44290923 8.99653977 -2 13 C-2.99 13 -3.98 13 -5 13 C-4.61271765 7.28758534 -4.12989477 4.26311718 0 0 Z " fill="#2F96CA" transform="translate(53,85)"/>
<path d="M0 0 C0.495 0.70125 0.99 1.4025 1.5 2.125 C4.61075437 5.70236753 8.14380244 8.27632648 12 11 C11.01 11.33 10.02 11.66 9 12 C8.01 11.34 7.02 10.68 6 10 C4.34450469 9.61500109 2.6777567 9.27206865 1 9 C1.020625 8.2575 1.04125 7.515 1.0625 6.75 C1.00671312 4.29537721 0.6930096 2.33890739 0 0 Z " fill="#3780AD" transform="translate(24,106)"/>
<path d="M0 0 C0.99 0.33 1.98 0.66 3 1 C1.40629329 2.36646148 -0.20032982 3.71787166 -1.8125 5.0625 C-3.15248047 6.19365234 -3.15248047 6.19365234 -4.51953125 7.34765625 C-5.74736328 8.16556641 -5.74736328 8.16556641 -7 9 C-7.99 8.67 -8.98 8.34 -10 8 C-8.40629329 6.63353852 -6.79967018 5.28212834 -5.1875 3.9375 C-4.29417969 3.18339844 -3.40085938 2.42929688 -2.48046875 1.65234375 C-1.25263672 0.83443359 -1.25263672 0.83443359 0 0 Z " fill="#294178" transform="translate(145,149)"/>
<path d="M0 0 C4.29 0.33 8.58 0.66 13 1 C12.34 2.65 11.68 4.3 11 6 C10.67 4.68 10.34 3.36 10 2 C6.37 2.33 2.74 2.66 -1 3 C-0.67 2.01 -0.34 1.02 0 0 Z " fill="#3095CD" transform="translate(97,11)"/>
<path d="M0 0 C0.33 0 0.66 0 1 0 C1.12375 0.969375 1.2475 1.93875 1.375 2.9375 C1.58125 3.948125 1.7875 4.95875 2 6 C2.66 6.33 3.32 6.66 4 7 C4.625 10.0625 4.625 10.0625 5 13 C3.68 13 2.36 13 1 13 C0.1276588 10.00519083 -0.10829766 7.36424089 -0.0625 4.25 C-0.05347656 3.45078125 -0.04445313 2.6515625 -0.03515625 1.828125 C-0.02355469 1.22484375 -0.01195313 0.6215625 0 0 Z " fill="#2F96C7" transform="translate(21,99)"/>
<path d="M0 0 C0.33 0 0.66 0 1 0 C1.87890625 6.15234375 1.87890625 6.15234375 2 8 C1.67 8.33 1.34 8.66 1 9 C0.76572222 11.01594582 0.58663876 13.038474 0.4375 15.0625 C0.35371094 16.16722656 0.26992187 17.27195312 0.18359375 18.41015625 C0.12300781 19.26480469 0.06242188 20.11945313 0 21 C-0.33 21 -0.66 21 -1 21 C-1.02710123 18.4374282 -1.04688771 15.87514635 -1.0625 13.3125 C-1.07087891 12.59126953 -1.07925781 11.87003906 -1.08789062 11.12695312 C-1.10543632 7.28444618 -0.93524221 3.73360474 0 0 Z " fill="#4B8AAA" transform="translate(13,75)"/>
<path d="M0 0 C0.61875 0.268125 1.2375 0.53625 1.875 0.8125 C2.205 1.8025 2.535 2.7925 2.875 3.8125 C0.5625 4.5 0.5625 4.5 -2.125 4.8125 C-3.9375 3.375 -3.9375 3.375 -5.125 1.8125 C-2.125 -0.1875 -2.125 -0.1875 0 0 Z " fill="#3692C1" transform="translate(61.125,106.1875)"/>
<path d="M0 0 C1.32 0 2.64 0 4 0 C4.125 2.375 4.125 2.375 4 5 C2 7 2 7 -1.625 7.125 C-2.73875 7.08375 -3.8525 7.0425 -5 7 C-2.4345406 4.4345406 -0.52313332 4.45953913 3 4 C3 3.01 3 2.02 3 1 C2.01 0.67 1.02 0.34 0 0 Z " fill="#2F93C8" transform="translate(72,71)"/>
<path d="M0 0 C0.66 0 1.32 0 2 0 C2.69937202 1.4317616 3.38412718 2.87067032 4.0625 4.3125 C4.63677734 5.51326172 4.63677734 5.51326172 5.22265625 6.73828125 C6 9 6 9 5 12 C1.66226291 8.35883227 1.02135098 4.71392758 0 0 Z " fill="#2E7DAC" transform="translate(89,145)"/>
<path d="M0 0 C4.62 0 9.24 0 14 0 C14 0.33 14 0.66 14 1 C13.15695313 1.12117187 12.31390625 1.24234375 11.4453125 1.3671875 C10.34960938 1.53476563 9.25390625 1.70234375 8.125 1.875 C7.03445312 2.03742188 5.94390625 2.19984375 4.8203125 2.3671875 C1.88067286 2.76256513 1.88067286 2.76256513 0 5 C0 3.35 0 1.7 0 0 Z " fill="#2F4E8A" transform="translate(100,131)"/>
<path d="M0 0 C2.64 0.33 5.28 0.66 8 1 C8 1.33 8 1.66 8 2 C3.46298506 3.45184478 -0.18061476 4.23509196 -5 4 C-4.360625 3.71125 -3.72125 3.4225 -3.0625 3.125 C-0.84793921 2.17176549 -0.84793921 2.17176549 0 0 Z " fill="#3597CB" transform="translate(60,71)"/>
<path d="M0 0 C3.80881639 1.44472346 5.29742886 3.32603071 7 7 C6.67 7.99 6.34 8.98 6 10 C4.99421411 8.71283353 3.99553202 7.42011342 3 6.125 C2.443125 5.40570313 1.88625 4.68640625 1.3125 3.9453125 C0 2 0 2 0 0 Z " fill="#223A6E" transform="translate(156,41)"/>
<path d="M0 0 C1.70840281 1.63412443 2.93453047 2.86906094 4 5 C6.01669827 6.13350534 6.01669827 6.13350534 8 7 C6.35 7.33 4.7 7.66 3 8 C0 3.375 0 3.375 0 0 Z " fill="#253C6E" transform="translate(105,161)"/>
<path d="M0 0 C2.5 1.375 2.5 1.375 5 3 C5 3.66 5 4.32 5 5 C3.1875 5.625 3.1875 5.625 1 6 C0.01 5.34 -0.98 4.68 -2 4 C-1.34 2.68 -0.68 1.36 0 0 Z " fill="#2B4F87" transform="translate(128,156)"/>
<path d="M0 0 C-3.26545761 1.88391785 -6.28111761 2.49287967 -10 3 C-10.33 2.34 -10.66 1.68 -11 1 C-3.57142857 -1.42857143 -3.57142857 -1.42857143 0 0 Z " fill="#2B3A66" transform="translate(168,122)"/>
<path d="M0 0 C0.33 0 0.66 0 1 0 C1 2.97 1 5.94 1 9 C0.67 8.34 0.34 7.68 0 7 C-0.99 7 -1.98 7 -3 7 C-3 6.01 -3 5.02 -3 4 C-2.34 3.67 -1.68 3.34 -1 3 C-0.67 2.01 -0.34 1.02 0 0 Z " fill="#274A8C" transform="translate(151,58)"/>
<path d="M0 0 C2.0625 1.75 2.0625 1.75 4 4 C3.75 6.25 3.75 6.25 3 8 C0.9375 5.6875 0.9375 5.6875 -1 3 C-0.67 2.01 -0.34 1.02 0 0 Z " fill="#348DBD" transform="translate(19,118)"/>
<path d="M0 0 C0.66 0 1.32 0 2 0 C2 0.99 2 1.98 2 3 C-1.96 3 -5.92 3 -10 3 C-10 2.67 -10 2.34 -10 2 C-9.04287109 1.90912109 -9.04287109 1.90912109 -8.06640625 1.81640625 C-6.82697266 1.69072266 -6.82697266 1.69072266 -5.5625 1.5625 C-4.73878906 1.48128906 -3.91507812 1.40007812 -3.06640625 1.31640625 C-1.01337975 1.21069185 -1.01337975 1.21069185 0 0 Z " fill="#2F96CA" transform="translate(97,166)"/>
<path d="M0 0 C0.99 0 1.98 0 3 0 C3 4 3 4 2 7 C1.34 7 0.68 7 0 7 C0 4.69 0 2.38 0 0 Z " fill="#284D8D" transform="translate(104,155)"/>
<path d="M0 0 C0 0.66 0 1.32 0 2 C-2.64 2.66 -5.28 3.32 -8 4 C-8.33 3.01 -8.66 2.02 -9 1 C-5.94152152 0.45627049 -3.11227195 0 0 0 Z " fill="#2D4B81" transform="translate(135,128)"/>
<path d="" fill="#FFFFFF" transform="translate(0,0)"/>
<path d="" fill="#FFFFFF" transform="translate(0,0)"/>
<path d="" fill="#FFFFFF" transform="translate(0,0)"/>
<path d="" fill="#FFFFFF" transform="translate(0,0)"/>
<path d="" fill="#FFFFFF" transform="translate(0,0)"/>
<path d="" fill="#FFFFFF" transform="translate(0,0)"/>
<path d="" fill="#FFFFFF" transform="translate(0,0)"/>
<path d="" fill="#FFFFFF" transform="translate(0,0)"/>
<path d="" fill="#FFFFFF" transform="translate(0,0)"/>
<path d="" fill="#FFFFFF" transform="translate(0,0)"/>
<path d="" fill="#FFFFFF" transform="translate(0,0)"/>
<path d="" fill="#FFFFFF" transform="translate(0,0)"/>
<path d="" fill="#00FFFF" transform="translate(0,0)"/>
<path d="" fill="#FFFFFF" transform="translate(0,0)"/>
<path d="" fill="#FFFFFF" transform="translate(0,0)"/>
<path d="" fill="#FFFFFF" transform="translate(0,0)"/>
<path d="" fill="#FFFFFF" transform="translate(0,0)"/>
<path d="" fill="#FFFFFF" transform="translate(0,0)"/>
<path d="" fill="#FFFFFF" transform="translate(0,0)"/>
<path d="" fill="#FFFFFF" transform="translate(0,0)"/>
<path d="" fill="#FFFFFF" transform="translate(0,0)"/>
<path d="" fill="#FFFFFF" transform="translate(0,0)"/>
<path d="" fill="#FFFFFF" transform="translate(0,0)"/>
<path d="" fill="#FFFFFF" transform="translate(0,0)"/>
<path d="" fill="#FFFFFF" transform="translate(0,0)"/>
<path d="" fill="#FFFFFF" transform="translate(0,0)"/>
<path d="" fill="#FFFFFF" transform="translate(0,0)"/>
<path d="" fill="#FFFFFF" transform="translate(0,0)"/>
<path d="" fill="#FFFFFF" transform="translate(0,0)"/>
<path d="" fill="#FFFFFF" transform="translate(0,0)"/>
<path d="" fill="#FFFFFF" transform="translate(0,0)"/>
<path d="" fill="#FFFFFF" transform="translate(0,0)"/>
<path d="" fill="#FFFFFF" transform="translate(0,0)"/>
</svg>
